HIERARCHY
ROOT Hips
{
  OFFSET 0.0 0.0 0.0
  CHANNELS 6 Xposition Yposition Zposition Zrotation Xrotation Yrotation
  JOINT Spine
  {
    OFFSET 0.0 10.0 0.0
    CHANNELS 3 Zrotation Xrotation Yrotation
    JOINT Chest
    {
      OFFSET 0.0 10.0 0.0
      CHANNELS 3 Zrotation Xrotation Yrotation
      JOINT Neck
      {
        OFFSET 0.0 5.0 0.0
        CHANNELS 3 Zrotation Xrotation Yrotation
        JOINT Head
        {
          OFFSET 0.0 5.0 0.0
          CHANNELS 3 Zrotation Xrotation Yrotation
          End Site
          {
            OFFSET 0.0 3.0 0.0
          }
        }
      }
      JOINT LeftShoulder
      {
        OFFSET 5.0 3.0 0.0
        CHANNELS 3 Zrotation Xrotation Yrotation
        JOINT LeftArm
        {
          OFFSET 10.0 0.0 0.0
          CHANNELS 3 Zrotation Xrotation Yrotation
          JOINT LeftForeArm
          {
            OFFSET 10.0 0.0 0.0
            CHANNELS 3 Zrotation Xrotation Yrotation
            JOINT LeftHand
            {
              OFFSET 8.0 0.0 0.0
              CHANNELS 3 Zrotation Xrotation Yrotation
              End Site
              {
                OFFSET 3.0 0.0 0.0
              }
            }
          }
        }
      }
      JOINT RightShoulder
      {
        OFFSET -5.0 3.0 0.0
        CHANNELS 3 Zrotation Xrotation Yrotation
        JOINT RightArm
        {
          OFFSET -10.0 0.0 0.0
          CHANNELS 3 Zrotation Xrotation Yrotation
          JOINT RightForeArm
          {
            OFFSET -10.0 0.0 0.0
            CHANNELS 3 Zrotation Xrotation Yrotation
            JOINT RightHand
            {
              OFFSET -8.0 0.0 0.0
              CHANNELS 3 Zrotation Xrotation Yrotation
              End Site
              {
                OFFSET -3.0 0.0 0.0
              }
            }
          }
        }
      }
    }
  }
  JOINT LeftHip
  {
    OFFSET 5.0 -2.0 0.0
    CHANNELS 3 Zrotation Xrotation Yrotation
    JOINT LeftThigh
    {
      OFFSET 0.0 -20.0 0.0
      CHANNELS 3 Zrotation Xrotation Yrotation
      JOINT LeftShin
      {
        OFFSET 0.0 -20.0 0.0
        CHANNELS 3 Zrotation Xrotation Yrotation
        JOINT LeftFoot
        {
          OFFSET 0.0 -5.0 0.0
          CHANNELS 3 Zrotation Xrotation Yrotation
          End Site
          {
            OFFSET 0.0 -2.0 5.0
          }
        }
      }
    }
  }
  JOINT RightHip
  {
    OFFSET -5.0 -2.0 0.0
    CHANNELS 3 Zrotation Xrotation Yrotation
    JOINT RightThigh
    {
      OFFSET 0.0 -20.0 0.0
      CHANNELS 3 Zrotation Xrotation Yrotation
      JOINT RightShin
      {
        OFFSET 0.0 -20.0 0.0
        CHANNELS 3 Zrotation Xrotation Yrotation
        JOINT RightFoot
        {
          OFFSET 0.0 -5.0 0.0
          CHANNELS 3 Zrotation Xrotation Yrotation
          End Site
          {
            OFFSET 0.0 -2.0 5.0
          }
        }
      }
    }
  }
}
MOTION
Frames: 19
Frame Time: 0.033333
12.693304 40.253185 0.251148 0.317120 0.000000 0.000000 0.000000 0.000000 0.000000 0.000000 0.158560 0.000000 0.000000 0.000000 0.000000 0.000000 0.095136 0.000000 0.000000 0.000000 -10.000000 0.000000 0.000000 -1.139332 0.000000 0.000000 -1.139332 0.000000 0.000000 0.000000 0.000000 0.000000 10.000000 0.000000 0.000000 1.139332 0.000000 0.000000 0.000000 0.000000 0.000000 0.000000 0.000000 0.000000 0.000000 0.000000 0.000000 3.797774 0.000000 0.000000 0.000000 0.000000 0.000000 0.000000 0.000000 0.000000 0.000000 0.000000 0.000000 -3.797774 0.000000 0.000000 3.797774 0.000000 0.000000 0.000000
12.947170 40.743325 0.690079 0.946256 0.000000 0.000000 0.000000 0.000000 0.000000 0.000000 0.473128 0.000000 0.000000 0.000000 0.000000 0.000000 0.283877 0.000000 0.000000 0.000000 -10.000000 0.000000 0.000000 -3.344962 0.000000 0.000000 -3.344962 0.000000 0.000000 0.000000 0.000000 0.000000 10.000000 0.000000 0.000000 3.344962 0.000000 0.000000 0.000000 0.000000 0.000000 0.000000 0.000000 0.000000 0.000000 0.000000 0.000000 11.149874 0.000000 0.000000 0.000000 0.000000 0.000000 0.000000 0.000000 0.000000 0.000000 0.000000 0.000000 -11.149874 0.000000 0.000000 11.149874 0.000000 0.000000 0.000000
13.201036 41.185816 0.954902 1.560167 0.000000 0.000000 0.000000 0.000000 0.000000 0.000000 0.780084 0.000000 0.000000 0.000000 0.000000 0.000000 0.468050 0.000000 0.000000 0.000000 -10.000000 0.000000 0.000000 -5.336171 0.000000 0.000000 -5.336171 0.000000 0.000000 0.000000 0.000000 0.000000 10.000000 0.000000 0.000000 5.336171 0.000000 0.000000 0.000000 0.000000 0.000000 0.000000 0.000000 0.000000 0.000000 0.000000 0.000000 17.787238 0.000000 0.000000 0.000000 0.000000 0.000000 0.000000 0.000000 0.000000 0.000000 0.000000 0.000000 -17.787238 0.000000 0.000000 17.787238 0.000000 0.000000 0.000000
13.454902 41.552293 0.978802 2.148975 0.000000 0.000000 0.000000 0.000000 0.000000 0.000000 1.074487 0.000000 0.000000 0.000000 0.000000 0.000000 0.644692 0.000000 0.000000 0.000000 -10.000000 0.000000 0.000000 -6.985318 0.000000 0.000000 -6.985318 0.000000 0.000000 0.000000 0.000000 0.000000 10.000000 0.000000 0.000000 6.985318 0.000000 0.000000 0.000000 0.000000 0.000000 0.000000 0.000000 0.000000 0.000000 0.000000 0.000000 23.284394 0.000000 0.000000 0.000000 0.000000 0.000000 0.000000 0.000000 0.000000 0.000000 0.000000 0.000000 -23.284394 0.000000 0.000000 23.284394 0.000000 0.000000 0.000000
13.708768 41.819264 0.755750 2.703204 0.000000 0.000000 0.000000 0.000000 0.000000 0.000000 1.351602 0.000000 0.000000 0.000000 0.000000 0.000000 0.810961 0.000000 0.000000 0.000000 -10.000000 0.000000 0.000000 -8.186688 0.000000 0.000000 -8.186688 0.000000 0.000000 0.000000 0.000000 0.000000 10.000000 0.000000 0.000000 8.186688 0.000000 0.000000 0.000000 0.000000 0.000000 0.000000 0.000000 0.000000 0.000000 0.000000 0.000000 27.288960 0.000000 0.000000 0.000000 0.000000 0.000000 0.000000 0.000000 0.000000 0.000000 0.000000 0.000000 -27.288960 0.000000 0.000000 27.288960 0.000000 0.000000 0.000000
13.962634 41.969616 0.342020 3.213938 0.000000 0.000000 0.000000 0.000000 0.000000 0.000000 1.606969 0.000000 0.000000 0.000000 0.000000 0.000000 0.964181 0.000000 0.000000 0.000000 -10.000000 0.000000 0.000000 -8.863270 0.000000 0.000000 -8.863270 0.000000 0.000000 0.000000 0.000000 0.000000 10.000000 0.000000 0.000000 8.863270 0.000000 0.000000 0.000000 0.000000 0.000000 0.000000 0.000000 0.000000 0.000000 0.000000 0.000000 29.544233 0.000000 0.000000 0.000000 0.000000 0.000000 0.000000 0.000000 0.000000 0.000000 0.000000 0.000000 -29.544233 0.000000 0.000000 29.544233 0.000000 0.000000 0.000000
14.216500 41.993710 -0.158001 3.672959 0.000000 0.000000 0.000000 0.000000 0.000000 0.000000 1.836479 0.000000 0.000000 0.000000 0.000000 0.000000 1.101888 0.000000 0.000000 0.000000 -10.000000 0.000000 0.000000 -8.971693 0.000000 0.000000 -8.971693 0.000000 0.000000 0.000000 0.000000 0.000000 10.000000 0.000000 0.000000 8.971693 0.000000 0.000000 0.000000 0.000000 0.000000 0.000000 0.000000 0.000000 0.000000 0.000000 0.000000 29.905643 0.000000 0.000000 0.000000 0.000000 0.000000 0.000000 0.000000 0.000000 0.000000 0.000000 0.000000 -29.905643 0.000000 0.000000 29.905643 0.000000 0.000000 0.000000
14.470366 41.890002 -0.618159 4.072880 0.000000 0.000000 0.000000 0.000000 0.000000 0.000000 2.036440 0.000000 0.000000 0.000000 0.000000 0.000000 1.221864 0.000000 0.000000 0.000000 -10.000000 0.000000 0.000000 -8.505007 0.000000 0.000000 -8.505007 0.000000 0.000000 0.000000 0.000000 0.000000 10.000000 0.000000 0.000000 8.505007 0.000000 0.000000 0.000000 0.000000 0.000000 0.000000 0.000000 0.000000 0.000000 0.000000 0.000000 28.350025 0.000000 0.000000 0.000000 0.000000 0.000000 0.000000 0.000000 0.000000 0.000000 0.000000 0.000000 -28.350025 0.000000 0.000000 28.350025 0.000000 0.000000 0.000000
14.724232 41.665140 -0.922354 4.407267 0.000000 0.000000 0.000000 0.000000 0.000000 0.000000 2.203633 0.000000 0.000000 0.000000 0.000000 0.000000 1.322180 0.000000 0.000000 0.000000 -10.000000 0.000000 0.000000 -7.493129 0.000000 0.000000 -7.493129 0.000000 0.000000 0.000000 0.000000 0.000000 10.000000 0.000000 0.000000 7.493129 0.000000 0.000000 0.000000 0.000000 0.000000 0.000000 0.000000 0.000000 0.000000 0.000000 0.000000 24.977096 0.000000 0.000000 0.000000 0.000000 0.000000 0.000000 0.000000 0.000000 0.000000 0.000000 0.000000 -24.977096 0.000000 0.000000 24.977096 0.000000 0.000000 0.000000
14.978098 41.333538 -0.993838 4.670739 0.000000 0.000000 0.000000 0.000000 0.000000 0.000000 2.335370 0.000000 0.000000 0.000000 0.000000 0.000000 1.401222 0.000000 0.000000 0.000000 -10.000000 0.000000 0.000000 -6.000921 0.000000 0.000000 -6.000921 0.000000 0.000000 0.000000 0.000000 0.000000 10.000000 0.000000 0.000000 6.000921 0.000000 0.000000 0.000000 0.000000 0.000000 0.000000 0.000000 0.000000 0.000000 0.000000 0.000000 20.003070 0.000000 0.000000 0.000000 0.000000 0.000000 0.000000 0.000000 0.000000 0.000000 0.000000 0.000000 -20.003070 0.000000 0.000000 20.003070 0.000000 0.000000 0.000000
15.231964 40.916453 -0.814576 4.859058 0.000000 0.000000 0.000000 0.000000 0.000000 0.000000 2.429529 0.000000 0.000000 0.000000 0.000000 0.000000 1.457717 0.000000 0.000000 0.000000 -10.000000 0.000000 0.000000 -4.124039 0.000000 0.000000 -4.124039 0.000000 0.000000 0.000000 0.000000 0.000000 10.000000 0.000000 0.000000 4.124039 0.000000 0.000000 0.000000 0.000000 0.000000 0.000000 0.000000 0.000000 0.000000 0.000000 0.000000 13.746796 0.000000 0.000000 0.000000 0.000000 0.000000 0.000000 0.000000 0.000000 0.000000 0.000000 0.000000 -13.746796 0.000000 0.000000 13.746796 0.000000 0.000000 0.000000
15.485830 40.440621 -0.429795 4.969192 0.000000 0.000000 0.000000 0.000000 0.000000 0.000000 2.484596 0.000000 0.000000 0.000000 0.000000 0.000000 1.490758 0.000000 0.000000 0.000000 -10.000000 0.000000 0.000000 -1.982795 0.000000 0.000000 -1.982795 0.000000 0.000000 0.000000 0.000000 0.000000 10.000000 0.000000 0.000000 1.982795 0.000000 0.000000 0.000000 0.000000 0.000000 0.000000 0.000000 0.000000 0.000000 0.000000 0.000000 6.609316 0.000000 0.000000 0.000000 0.000000 0.000000 0.000000 0.000000 0.000000 0.000000 0.000000 0.000000 -6.609316 0.000000 0.000000 6.609316 0.000000 0.000000 0.000000
15.739697 39.936544 0.063424 4.999371 0.000000 0.000000 0.000000 0.000000 0.000000 0.000000 2.499685 0.000000 0.000000 0.000000 0.000000 0.000000 1.499811 0.000000 0.000000 0.000000 -10.000000 0.000000 0.000000 0.285551 0.000000 0.000000 0.000000 0.000000 0.000000 0.000000 0.000000 0.000000 10.000000 0.000000 0.000000 -0.285551 0.000000 0.000000 -0.285551 0.000000 0.000000 0.000000 0.000000 0.000000 0.000000 0.000000 0.000000 -0.951838 0.000000 0.000000 0.951838 0.000000 0.000000 0.000000 0.000000 0.000000 0.000000 0.000000 0.000000 0.951838 0.000000 0.000000 0.000000 0.000000 0.000000 0.000000
15.993563 39.436535 0.540641 4.949107 0.000000 0.000000 0.000000 0.000000 0.000000 0.000000 2.474554 0.000000 0.000000 0.000000 0.000000 0.000000 1.484732 0.000000 0.000000 0.000000 -10.000000 0.000000 0.000000 2.535593 0.000000 0.000000 0.000000 0.000000 0.000000 0.000000 0.000000 0.000000 10.000000 0.000000 0.000000 -2.535593 0.000000 0.000000 -2.535593 0.000000 0.000000 0.000000 0.000000 0.000000 0.000000 0.000000 0.000000 -8.451977 0.000000 0.000000 8.451977 0.000000 0.000000 0.000000 0.000000 0.000000 0.000000 0.000000 0.000000 8.451977 0.000000 0.000000 0.000000 0.000000 0.000000 0.000000
16.247429 38.972645 0.881453 4.819211 0.000000 0.000000 0.000000 0.000000 0.000000 0.000000 2.409605 0.000000 0.000000 0.000000 0.000000 0.000000 1.445763 0.000000 0.000000 0.000000 -10.000000 0.000000 0.000000 4.623097 0.000000 0.000000 0.000000 0.000000 0.000000 0.000000 0.000000 0.000000 10.000000 0.000000 0.000000 -4.623097 0.000000 0.000000 -4.623097 0.000000 0.000000 0.000000 0.000000 0.000000 0.000000 0.000000 0.000000 -15.410322 0.000000 0.000000 15.410322 0.000000 0.000000 0.000000 0.000000 0.000000 0.000000 0.000000 0.000000 15.410322 0.000000 0.000000 0.000000 0.000000 0.000000 0.000000
16.501295 38.574612 0.999874 4.611771 0.000000 0.000000 0.000000 0.000000 0.000000 0.000000 2.305886 0.000000 0.000000 0.000000 0.000000 0.000000 1.383531 0.000000 0.000000 0.000000 -10.000000 0.000000 0.000000 6.414248 0.000000 0.000000 0.000000 0.000000 0.000000 0.000000 0.000000 0.000000 10.000000 0.000000 0.000000 -6.414248 0.000000 0.000000 -6.414248 0.000000 0.000000 0.000000 0.000000 0.000000 0.000000 0.000000 0.000000 -21.380825 0.000000 0.000000 21.380825 0.000000 0.000000 0.000000 0.000000 0.000000 0.000000 0.000000 0.000000 21.380825 0.000000 0.000000 0.000000 0.000000 0.000000 0.000000
16.755161 38.267949 0.866025 4.330127 0.000000 0.000000 0.000000 0.000000 0.000000 0.000000 2.165064 0.000000 0.000000 0.000000 0.000000 0.000000 1.299038 0.000000 0.000000 0.000000 -10.000000 0.000000 0.000000 7.794229 0.000000 0.000000 0.000000 0.000000 0.000000 0.000000 0.000000 0.000000 10.000000 0.000000 0.000000 -7.794229 0.000000 0.000000 -7.794229 0.000000 0.000000 0.000000 0.000000 0.000000 0.000000 0.000000 0.000000 -25.980762 0.000000 0.000000 25.980762 0.000000 0.000000 0.000000 0.000000 0.000000 0.000000 0.000000 0.000000 25.980762 0.000000 0.000000 0.000000 0.000000 0.000000 0.000000
17.009027 38.072316 0.513677 3.978809 0.000000 0.000000 0.000000 0.000000 0.000000 0.000000 1.989405 0.000000 0.000000 0.000000 0.000000 0.000000 1.193643 0.000000 0.000000 0.000000 -10.000000 0.000000 0.000000 8.674579 0.000000 0.000000 0.000000 0.000000 0.000000 0.000000 0.000000 0.000000 10.000000 0.000000 0.000000 -8.674579 0.000000 0.000000 -8.674579 0.000000 0.000000 0.000000 0.000000 0.000000 0.000000 0.000000 0.000000 -28.915265 0.000000 0.000000 28.915265 0.000000 0.000000 0.000000 0.000000 0.000000 0.000000 0.000000 0.000000 28.915265 0.000000 0.000000 0.000000 0.000000 0.000000 0.000000
17.262893 38.000252 0.031728 3.563471 0.000000 0.000000 0.000000 0.000000 0.000000 0.000000 1.781735 0.000000 0.000000 0.000000 0.000000 0.000000 1.069041 0.000000 0.000000 0.000000 -10.000000 0.000000 0.000000 8.998867 0.000000 0.000000 0.000000 0.000000 0.000000 0.000000 0.000000 0.000000 10.000000 0.000000 0.000000 -8.998867 0.000000 0.000000 -8.998867 0.000000 0.000000 0.000000 0.000000 0.000000 0.000000 0.000000 0.000000 -29.996224 0.000000 0.000000 29.996224 0.000000 0.000000 0.000000 0.000000 0.000000 0.000000 0.000000 0.000000 29.996224 0.000000 0.000000 0.000000 0.000000 0.000000 0.000000
